{
	"asset":{
		"generator":"Khronos glTF Blender I/O v4.0.44",
		"version":"2.0"
	},
	"scene":0,
	"scenes":[
		{
			"name":"Scene",
			"nodes":[
				0,
				1,
				2,
				3
			]
		}
	],
	"nodes":[
		{
			"mesh":0,
			"name":"Desk",
			"scale":[
				0.296500027179718,
				0.46000000834465027,
				0.6500000357627869
			],
			"translation":[
				-1.2799999713897705,
				-0.690000057220459,
				1.1799999475479126
			]
		},
		{
			"mesh":1,
			"name":"Shelves",
			"rotation":[
				0,
				0.7071068286895752,
				0,
				0.7071068286895752
			],
			"scale":[
				0.7350000143051147,
				0.7325000166893005,
				0.19500000774860382
			],
			"translation":[
				-1.3799999952316284,
				-0.4150000214576721,
				-0.6599999666213989
			]
		},
		{
			"mesh":2,
			"name":"Cube.001",
			"scale":[
				1.600000023841858,
				0.02500000037252903,
				1.8500001430511475
			],
			"translation":[
				0,
				-0.02500000037252903,
				0
			]
		},
		{
			"mesh":3,
			"name":"Cube",
			"rotation":[
				0,
				-1,
				0,
				4.371138828673793e-08
			],
			"scale":[
				0.7500000596046448,
				0.5,
				0.9950000643730164
			],
			"translation":[
				0.8249999284744263,
				-0.6500000953674316,
				0.8349997997283936
			]
		}
	],
	"materials":[
		{
			"doubleSided":true,
			"name":"Material.001",
			"pbrMetallicRoughness":{
				"baseColorFactor":[
					0.800000011920929,
					0.800000011920929,
					0.800000011920929,
					1
				],
				"metallicFactor":0,
				"roughnessFactor":0.5
			}
		},
		{
			"doubleSided":true,
			"name":"Material.002",
			"pbrMetallicRoughness":{
				"baseColorFactor":[
					0.800000011920929,
					0.800000011920929,
					0.800000011920929,
					1
				],
				"metallicFactor":0,
				"roughnessFactor":0.5
			}
		},
		{
			"doubleSided":true,
			"name":"Material",
			"pbrMetallicRoughness":{
				"baseColorFactor":[
					0.800000011920929,
					0.800000011920929,
					0.800000011920929,
					1
				],
				"metallicFactor":0,
				"roughnessFactor":0.5
			}
		}
	],
	"meshes":[
		{
			"name":"Cube.001",
			"primitives":[
				{
					"attributes":{
						"POSITION":0,
						"NORMAL":1,
						"TEXCOORD_0":2
					},
					"indices":3,
					"material":0
				}
			]
		},
		{
			"name":"Cube",
			"primitives":[
				{
					"attributes":{
						"POSITION":4,
						"NORMAL":5,
						"TEXCOORD_0":6
					},
					"indices":7,
					"material":1
				}
			]
		},
		{
			"name":"Cube.003",
			"primitives":[
				{
					"attributes":{
						"POSITION":8,
						"NORMAL":9,
						"TEXCOORD_0":10
					},
					"indices":11
				}
			]
		},
		{
			"name":"Cube.002",
			"primitives":[
				{
					"attributes":{
						"POSITION":12,
						"NORMAL":13,
						"TEXCOORD_0":14
					},
					"indices":15,
					"material":2
				}
			]
		}
	],
	"accessors":[
		{
			"bufferView":0,
			"componentType":5126,
			"count":401,
			"max":[
				1,
				1,
				1
			],
			"min":[
				-1,
				-1,
				-1
			],
			"type":"VEC3"
		},
		{
			"bufferView":1,
			"componentType":5126,
			"count":401,
			"type":"VEC3"
		},
		{
			"bufferView":2,
			"componentType":5126,
			"count":401,
			"type":"VEC2"
		},
		{
			"bufferView":3,
			"componentType":5123,
			"count":972,
			"type":"SCALAR"
		},
		{
			"bufferView":4,
			"componentType":5126,
			"count":524,
			"max":[
				1,
				1,
				1
			],
			"min":[
				-1,
				-1,
				-1
			],
			"type":"VEC3"
		},
		{
			"bufferView":5,
			"componentType":5126,
			"count":524,
			"type":"VEC3"
		},
		{
			"bufferView":6,
			"componentType":5126,
			"count":524,
			"type":"VEC2"
		},
		{
			"bufferView":7,
			"componentType":5123,
			"count":1404,
			"type":"SCALAR"
		},
		{
			"bufferView":8,
			"componentType":5126,
			"count":639,
			"max":[
				1.0500000715255737,
				47.000003814697266,
				1.0500000715255737
			],
			"min":[
				-1.0500000715255737,
				-47.000003814697266,
				-1.0500000715255737
			],
			"type":"VEC3"
		},
		{
			"bufferView":9,
			"componentType":5126,
			"count":639,
			"type":"VEC3"
		},
		{
			"bufferView":10,
			"componentType":5126,
			"count":639,
			"type":"VEC2"
		},
		{
			"bufferView":11,
			"componentType":5123,
			"count":1644,
			"type":"SCALAR"
		},
		{
			"bufferView":12,
			"componentType":5126,
			"count":1841,
			"max":[
				1,
				1,
				1
			],
			"min":[
				-1,
				-1,
				-1
			],
			"type":"VEC3"
		},
		{
			"bufferView":13,
			"componentType":5126,
			"count":1841,
			"type":"VEC3"
		},
		{
			"bufferView":14,
			"componentType":5126,
			"count":1841,
			"type":"VEC2"
		},
		{
			"bufferView":15,
			"componentType":5123,
			"count":3084,
			"type":"SCALAR"
		}
	],
	"bufferViews":[
		{
			"buffer":0,
			"byteLength":4812,
			"byteOffset":0,
			"target":34962
		},
		{
			"buffer":0,
			"byteLength":4812,
			"byteOffset":4812,
			"target":34962
		},
		{
			"buffer":0,
			"byteLength":3208,
			"byteOffset":9624,
			"target":34962
		},
		{
			"buffer":0,
			"byteLength":1944,
			"byteOffset":12832,
			"target":34963
		},
		{
			"buffer":0,
			"byteLength":6288,
			"byteOffset":14776,
			"target":34962
		},
		{
			"buffer":0,
			"byteLength":6288,
			"byteOffset":21064,
			"target":34962
		},
		{
			"buffer":0,
			"byteLength":4192,
			"byteOffset":27352,
			"target":34962
		},
		{
			"buffer":0,
			"byteLength":2808,
			"byteOffset":31544,
			"target":34963
		},
		{
			"buffer":0,
			"byteLength":7668,
			"byteOffset":34352,
			"target":34962
		},
		{
			"buffer":0,
			"byteLength":7668,
			"byteOffset":42020,
			"target":34962
		},
		{
			"buffer":0,
			"byteLength":5112,
			"byteOffset":49688,
			"target":34962
		},
		{
			"buffer":0,
			"byteLength":3288,
			"byteOffset":54800,
			"target":34963
		},
		{
			"buffer":0,
			"byteLength":22092,
			"byteOffset":58088,
			"target":34962
		},
		{
			"buffer":0,
			"byteLength":22092,
			"byteOffset":80180,
			"target":34962
		},
		{
			"buffer":0,
			"byteLength":14728,
			"byteOffset":102272,
			"target":34962
		},
		{
			"buffer":0,
			"byteLength":6168,
			"byteOffset":117000,
			"target":34963
		}
	],
	"buffers":[
		{
			"byteLength":123168,
			"uri":"Room.bin"
		}
	]
}
